<svg width="61" height="84" viewBox="0 0 61 84" fill="none" xmlns="http://www.w3.org/2000/svg">
<path d="M60.2643 41.1199L21.4416 83.1146C21.0302 83.5579 20.4872 83.8541 19.8944 83.9584C19.3017 84.0627 18.6914 83.9696 18.1557 83.693C17.6199 83.4165 17.1878 82.9715 16.9246 82.4253C16.6613 81.8791 16.5812 81.2612 16.6962 80.6649L21.7779 55.0026L1.80151 47.4296C1.37249 47.2676 0.989907 47.0008 0.687935 46.653C0.385964 46.3053 0.174011 45.8875 0.0710143 45.4369C-0.0319828 44.9863 -0.0228163 44.5169 0.0976942 44.0708C0.218205 43.6246 0.446305 43.2156 0.761619 42.8801L39.5843 0.885364C39.9957 0.442094 40.5388 0.145946 41.1315 0.0416086C41.7243 -0.0627284 42.3345 0.0304072 42.8703 0.306961C43.406 0.583515 43.8381 1.02848 44.1013 1.57471C44.3646 2.12095 44.4447 2.73881 44.3297 3.33506L39.2342 29.0254L59.2105 36.5879C59.6364 36.751 60.0159 37.0175 60.3155 37.3639C60.6152 37.7102 60.8257 38.1257 60.9285 38.5737C61.0312 39.0217 61.0232 39.4883 60.9049 39.9324C60.7867 40.3765 60.5619 40.7843 60.2504 41.1199H60.2643Z" fill="white"/>
</svg>
