<svg width="82" height="79" viewBox="0 0 82 79" fill="none" xmlns="http://www.w3.org/2000/svg">
<path opacity="0.5" d="M81.9801 1.03041L61.9173 72.104C61.8153 72.4266 61.4072 72.5234 61.1692 72.2975L47.7373 59.554L57.8027 23.9365C57.9047 23.6139 57.5987 23.3236 57.2586 23.4203L19.7173 32.9699L6.35336 20.2909C6.11533 20.0651 6.21734 19.6779 6.55739 19.5812L81.436 0.514212C81.7761 0.449688 82.0821 0.740048 81.9801 1.03041Z" fill="#F2F2F2"/>
<path opacity="0.5" d="M47.7365 59.5534L42.5678 77.9428C42.4658 78.2655 42.0577 78.3622 41.8197 78.1364L0.129728 38.6152C-0.108306 38.3894 -0.00629233 38.0022 0.333756 37.9055L19.7165 32.9693L47.7365 59.5534Z" fill="#F2F2F2"/>
<path d="M57.8008 23.9359L47.7353 59.5534L19.7153 32.9693L57.2567 23.4197C57.5967 23.3229 57.9028 23.6133 57.8008 23.9359Z" fill="#F2F2F2"/>
</svg>
