<svg width="65" height="76" viewBox="0 0 65 76" fill="none" xmlns="http://www.w3.org/2000/svg">
<path d="M60.7261 0.000240063L11.4472 0.633571C8.37199 0.673095 5.43843 1.93077 3.29185 4.12995C1.14526 6.32911 -0.038507 9.28963 0.000955938 12.3602L0.782131 73.1428C0.791997 73.9102 1.10686 74.6426 1.65746 75.1783C2.20806 75.7142 2.94928 76.0096 3.71809 75.9998L55.8957 75.3292C56.6644 75.3194 57.3979 75.0049 57.9345 74.4551C58.4712 73.9053 58.7672 73.1651 58.7573 72.3977C58.7474 71.63 58.4326 70.8976 57.8819 70.3619C57.3313 69.826 56.59 69.5306 55.8213 69.5405L6.54245 70.1738C6.52271 68.6385 7.11459 67.1582 8.18789 66.0586C9.26117 64.959 10.728 64.3302 12.2656 64.3105L61.5445 63.6772C62.3132 63.6673 63.0467 63.3528 63.5833 62.803C64.1198 62.2532 64.4158 61.5131 64.4059 60.7454L63.662 2.8574C63.6522 2.08975 63.3372 1.35747 62.7867 0.821647C62.236 0.285828 61.4948 -0.00964048 60.7261 0.000240063ZM28.9142 6.19885L46.3067 5.97532L46.6415 32.025L39.6139 26.9045C39.1073 26.5352 38.4944 26.3399 37.8672 26.348C37.24 26.3561 36.6322 26.5669 36.1353 26.9493L29.2489 32.2485L28.9142 6.19885ZM58.5713 57.9256L12.1912 58.5216C10.1553 58.545 8.16188 59.1063 6.4136 60.1482L5.79846 12.2857C5.77874 10.7504 6.37062 9.27015 7.4439 8.17057C8.5172 7.07099 9.98399 6.44214 11.5216 6.42238L23.1166 6.27336L23.5258 38.1118C23.5326 38.6493 23.6893 39.1744 23.9782 39.6279C24.2672 40.0815 24.6768 40.4458 25.1614 40.6801C25.6461 40.9142 26.1864 41.009 26.7219 40.9538C27.2574 40.8987 27.767 40.6958 28.1936 40.3677L37.9545 32.8603L47.9087 40.1143C48.4144 40.4828 49.0259 40.6781 49.6518 40.6709C50.4205 40.661 51.154 40.3466 51.6906 39.7968C52.2273 39.247 52.5233 38.5068 52.5134 37.7392L52.1041 5.90081L57.9017 5.8263L58.5713 57.9256Z" fill="white"/>
</svg>
