<svg width="72" height="72" viewBox="0 0 72 72" fill="none" xmlns="http://www.w3.org/2000/svg">
<path d="M26.9966 58.5C26.9966 61.17 26.205 63.7801 24.722 66.0002C23.2389 68.2203 21.1309 69.9506 18.6646 70.9724C16.1983 71.9941 13.4845 72.2615 10.8663 71.7406C8.24815 71.2197 5.84319 69.9339 3.95558 68.0459C2.06797 66.1579 0.782493 63.7525 0.261703 61.1337C-0.259087 58.515 0.00820135 55.8006 1.02977 53.3338C2.05133 50.867 3.7813 48.7586 6.00089 47.2752C8.22048 45.7918 10.83 45 13.4995 45C17.0792 45 20.5122 46.4223 23.0434 48.9541C25.5746 51.4858 26.9966 54.9196 26.9966 58.5ZM0.879673 32.1225C1.15823 32.4014 1.48903 32.6227 1.85315 32.7737C2.21726 32.9246 2.60756 33.0024 3.00172 33.0024C3.39589 33.0024 3.78618 32.9246 4.1503 32.7737C4.51442 32.6227 4.84521 32.4014 5.12377 32.1225L10.5001 26.7412L15.8765 32.1225C16.4393 32.6854 17.2026 33.0017 17.9985 33.0017C18.7945 33.0017 19.5578 32.6854 20.1206 32.1225C20.6834 31.5596 20.9996 30.7961 20.9996 30C20.9996 29.2039 20.6834 28.4404 20.1206 27.8775L14.7405 22.5L20.1206 17.1225C20.6834 16.5596 20.9996 15.7961 20.9996 15C20.9996 14.2039 20.6834 13.4404 20.1206 12.8775C19.5578 12.3146 18.7945 11.9983 17.9985 11.9983C17.2026 11.9983 16.4393 12.3146 15.8765 12.8775L10.5001 18.2587L5.12377 12.8775C4.56097 12.3146 3.79765 11.9983 3.00172 11.9983C2.2058 11.9983 1.44248 12.3146 0.879673 12.8775C0.31687 13.4404 0.000691517 14.2039 0.000691506 15C0.000691494 15.7961 0.316871 16.5596 0.879673 17.1225L6.25978 22.5L0.879673 27.8775C0.600803 28.1561 0.379573 28.487 0.228632 28.8512C0.0776915 29.2154 0 29.6058 0 30C0 30.3942 0.0776915 30.7846 0.228632 31.1488C0.379573 31.513 0.600803 31.8439 0.879673 32.1225ZM65.7409 58.5L71.121 53.1225C71.6838 52.5596 72 51.7961 72 51C72 50.2039 71.6838 49.4404 71.121 48.8775C70.5582 48.3146 69.7949 47.9983 68.999 47.9983C68.203 47.9983 67.4397 48.3146 66.8769 48.8775L61.4893 54.2587L56.113 48.8775C55.5502 48.3146 54.7868 47.9983 53.9909 47.9983C53.195 47.9983 52.4317 48.3146 51.8689 48.8775C51.306 49.4404 50.9899 50.2039 50.9899 51C50.9899 51.7961 51.306 52.5596 51.8689 53.1225L57.249 58.5L51.8689 63.8775C51.306 64.4404 50.9899 65.2039 50.9899 66C50.9899 66.7961 51.306 67.5596 51.8689 68.1225C52.4317 68.6854 53.195 69.0017 53.9909 69.0017C54.7868 69.0017 55.5502 68.6854 56.113 68.1225L61.4893 62.7412L66.8657 68.1225C67.1443 68.4012 67.4752 68.6223 67.8393 68.7732C68.2034 68.924 68.5936 69.0017 68.9877 69.0017C69.3818 69.0017 69.7721 68.924 70.1362 68.7732C70.5003 68.6223 70.8311 68.4012 71.1098 68.1225C71.3884 67.8438 71.6095 67.5129 71.7603 67.1487C71.9111 66.7845 71.9888 66.3942 71.9888 66C71.9888 65.6058 71.9111 65.2155 71.7603 64.8513C71.6095 64.4871 71.3884 64.1562 71.1098 63.8775L65.7409 58.5ZM47.1149 6.8775L46.2338 6H53.9909C54.7864 6 55.5493 5.68393 56.1118 5.12132C56.6743 4.55871 56.9903 3.79565 56.9903 3C56.9903 2.20435 56.6743 1.44129 56.1118 0.87868C55.5493 0.316071 54.7864 0 53.9909 0H38.9941C38.1986 0 37.4357 0.316071 36.8732 0.87868C36.3107 1.44129 35.9947 2.20435 35.9947 3V18C35.9947 18.7956 36.3107 19.5587 36.8732 20.1213C37.4357 20.6839 38.1986 21 38.9941 21C39.7896 21 40.5525 20.6839 41.115 20.1213C41.6774 19.5587 41.9935 18.7956 41.9935 18V10.2412L42.8708 11.1225C49.5931 17.8462 49.5818 24.3975 48.3858 28.71C46.6462 34.9987 41.1274 40.6237 35.2636 42.09C34.5536 42.268 33.9331 42.6996 33.5191 43.3034C33.1051 43.9073 32.9262 44.6417 33.0161 45.3684C33.106 46.095 33.4585 46.7637 34.0071 47.2484C34.5558 47.7332 35.2627 48.0005 35.9947 48C36.2474 48.0012 36.4993 47.971 36.7446 47.91C44.6966 45.9225 51.8726 38.685 54.1896 30.3112C56.4579 22.0425 53.9534 13.7212 47.1149 6.8775Z" fill="white"/>
</svg>
