<svg width="81" height="81" viewBox="0 0 81 81" fill="none" xmlns="http://www.w3.org/2000/svg">
<path d="M35.8269 21.8077H37.3846V37.3846H35.8269C33.7613 37.3846 31.7803 36.564 30.3197 35.1034C28.859 33.6428 28.0385 31.6618 28.0385 29.5961C28.0385 27.5305 28.859 25.5495 30.3197 24.0889C31.7803 22.6283 33.7613 21.8077 35.8269 21.8077ZM48.2885 43.6154H43.6154V59.1923H48.2885C50.3541 59.1923 52.3351 58.3717 53.7957 56.9111C55.2564 55.4505 56.0769 53.4695 56.0769 51.4038C56.0769 49.3382 55.2564 47.3572 53.7957 45.8966C52.3351 44.4359 50.3541 43.6154 48.2885 43.6154ZM81 40.5C81 48.5101 78.6247 56.3404 74.1745 63.0006C69.7243 69.6608 63.3991 74.8518 55.9987 77.9171C48.5983 80.9824 40.4551 81.7845 32.5989 80.2218C24.7426 78.6591 17.5262 74.8018 11.8622 69.1378C6.19817 63.4738 2.34092 56.2574 0.778214 48.4011C-0.784487 40.5449 0.017548 32.4017 3.0829 25.0013C6.14824 17.6009 11.3392 11.2757 17.9994 6.82548C24.6596 2.37528 32.4899 0 40.5 0C51.2378 0.0113393 61.5325 4.28193 69.1253 11.8747C76.7181 19.4675 80.9887 29.7622 81 40.5ZM62.3077 51.4038C62.3077 47.6857 60.8307 44.1199 58.2016 41.4907C55.5724 38.8616 52.0066 37.3846 48.2885 37.3846H43.6154V21.8077H45.1731C47.2387 21.8077 49.2197 22.6283 50.6804 24.0889C52.141 25.5495 52.9615 27.5305 52.9615 29.5961C52.9615 30.4224 53.2898 31.2148 53.874 31.7991C54.4583 32.3833 55.2507 32.7115 56.0769 32.7115C56.9032 32.7115 57.6956 32.3833 58.2798 31.7991C58.8641 31.2148 59.1923 30.4224 59.1923 29.5961C59.1923 25.878 57.7153 22.3122 55.0862 19.6831C52.4571 17.0539 48.8912 15.5769 45.1731 15.5769H43.6154V12.4615C43.6154 11.6353 43.2872 10.8429 42.7029 10.2586C42.1187 9.67438 41.3263 9.34615 40.5 9.34615C39.6738 9.34615 38.8813 9.67438 38.2971 10.2586C37.7129 10.8429 37.3846 11.6353 37.3846 12.4615V15.5769H35.8269C32.1088 15.5769 28.543 17.0539 25.9138 19.6831C23.2847 22.3122 21.8077 25.878 21.8077 29.5961C21.8077 33.3143 23.2847 36.8801 25.9138 39.5092C28.543 42.1384 32.1088 43.6154 35.8269 43.6154H37.3846V59.1923H34.2692C32.2036 59.1923 30.2226 58.3717 28.762 56.9111C27.3013 55.4505 26.4808 53.4695 26.4808 51.4038C26.4808 50.5776 26.1526 49.7852 25.5683 49.2009C24.9841 48.6167 24.1916 48.2884 23.3654 48.2884C22.5391 48.2884 21.7467 48.6167 21.1625 49.2009C20.5782 49.7852 20.25 50.5776 20.25 51.4038C20.25 55.122 21.727 58.6878 24.3562 61.3169C26.9853 63.946 30.5511 65.4231 34.2692 65.4231H37.3846V68.5384C37.3846 69.3647 37.7129 70.1571 38.2971 70.7414C38.8813 71.3256 39.6738 71.6538 40.5 71.6538C41.3263 71.6538 42.1187 71.3256 42.7029 70.7414C43.2872 70.1571 43.6154 69.3647 43.6154 68.5384V65.4231H48.2885C52.0066 65.4231 55.5724 63.946 58.2016 61.3169C60.8307 58.6878 62.3077 55.122 62.3077 51.4038Z" fill="white"/>
</svg>
